<?xml version="1.0" encoding="UTF-8"?>
<svg version="1.1" xmlns="http://www.w3.org/2000/svg" width="185" height="177">
<path d="M0 0 C4.45673159 0.49871064 6.57687178 2.02004362 9.8125 5.0625 C10.60269531 5.79597656 11.39289063 6.52945312 12.20703125 7.28515625 C12.79871094 7.85105469 13.39039063 8.41695312 14 9 C13.31997167 12.58733454 11.82225214 15.33892981 10.0234375 18.5 C9.435625 19.551875 8.8478125 20.60375 8.2421875 21.6875 C6.99550759 23.89918319 5.7428765 26.10752216 4.484375 28.3125 C3.60652344 29.8903125 3.60652344 29.8903125 2.7109375 31.5 C2.16743652 32.4590625 1.62393555 33.418125 1.06396484 34.40625 C-0.18387848 36.87791971 -0.18387848 36.87791971 0.20532227 39.21606445 C1.40454964 41.9081549 3.31749868 43.30581187 5.5625 45.1875 C15.23770581 53.67403766 23.31362042 61.90953915 24.4765625 75.34765625 C25.13138796 88.68125747 21.51973435 98.7531567 13.359375 109.3984375 C-1.90518199 126.2298861 -26.02426472 134.9759127 -48.22998047 136.17431641 C-76.56723771 137.27235019 -103.79758537 133.13378822 -126 114 C-135.5457628 104.66421168 -141.65793921 93.96508959 -142.3125 80.4375 C-142.10600983 67.9354588 -136.55112785 58.29306282 -128.37890625 49.1953125 C-127 48 -127 48 -125 48 C-125 47.34 -125 46.68 -125 46 C-105.57995571 29.04102123 -76.99181776 22.91882592 -51.87109375 24.2109375 C-41.34204805 24.94800959 -31.56450668 26.84627693 -21.4921875 29.9765625 C-18.12669165 31.14061817 -18.12669165 31.14061817 -15 31 C-14.65219482 30.23856689 -14.30438965 29.47713379 -13.94604492 28.69262695 C-12.64564671 25.84942747 -11.34262088 23.00745117 -10.0378418 20.16625977 C-9.19964504 18.3389764 -8.36444851 16.51031776 -7.52929688 14.68164062 C-6.99755859 13.52470703 -6.46582031 12.36777344 -5.91796875 11.17578125 C-5.43094482 10.11270752 -4.9439209 9.04963379 -4.44213867 7.9543457 C-3.09638786 5.19745886 -1.62182861 2.60207781 0 0 Z " fill="#A6C1EA" transform="translate(153,5)"/>
<path d="M0 0 C1.65549531 0.38499891 3.3222433 0.72793135 5 1 C3.4169112 6.21616816 1.21558881 10.99690309 -1.1328125 15.8984375 C-1.52951141 16.73339752 -1.92621033 17.56835754 -2.33493042 18.42861938 C-3.59504931 21.07896818 -4.85994751 23.7270031 -6.125 26.375 C-6.98339011 28.17823446 -7.84146645 29.98161832 -8.69921875 31.78515625 C-10.79585034 36.19184217 -12.89676946 40.59646007 -15 45 C-16.03532779 41.52494145 -15.7771352 38.85256428 -15.27416992 35.26196289 C-14.26254549 28.60302574 -14.26254549 28.60302574 -16.79296875 22.65234375 C-20.39451889 20.26110247 -23.82937462 19.00757555 -28 18 C-28.46897705 18.85231201 -28.9379541 19.70462402 -29.42114258 20.58276367 C-31.17018899 23.76086092 -32.9204822 26.93827008 -34.67114258 30.11547852 C-35.42701406 31.48768842 -36.18255249 32.86008185 -36.93774414 34.23266602 C-38.02661913 36.21159044 -39.11671124 38.18984019 -40.20703125 40.16796875 C-40.54152786 40.77650192 -40.87602448 41.3850351 -41.22065735 42.01200867 C-45.03832104 48.9319182 -45.03832104 48.9319182 -47 52 C-47.33 52 -47.66 52 -48 52 C-48.33 46.39 -48.66 40.78 -49 35 C-50.65 34.67 -52.3 34.34 -54 34 C-54.99 33.46375 -55.98 32.9275 -57 32.375 C-60.44093637 30.79790416 -61.47962173 30.8338747 -65 32 C-70.00306828 37.17144077 -73.84488146 45.19154094 -76 52 C-75.71970262 54.25154078 -75.71970262 54.25154078 -75 56 C-70.02093741 56.75427297 -70.02093741 56.75427297 -65 57 C-64.84739568 66.78363224 -65.19378822 76.49816651 -65.73217773 86.26586914 C-65.78059814 87.22356201 -65.82901855 88.18125488 -65.87890625 89.16796875 C-65.9260376 90.02672607 -65.97316895 90.8854834 -66.02172852 91.77026367 C-66.11238724 94.17445225 -66.11238724 94.17445225 -65 97 C-62.57828331 98.03499756 -62.57828331 98.03499756 -59.6875 98.6875 C-58.72199219 98.93886719 -57.75648437 99.19023437 -56.76171875 99.44921875 C-53.81555944 100.1303884 -53.81555944 100.1303884 -50 100 C-47.77324544 95.02088346 -45.54964541 90.04037437 -43.32885742 85.05859375 C-42.57417267 83.36680847 -41.81865273 81.67539548 -41.06225586 79.984375 C-39.97025092 77.54266059 -38.881335 75.09958811 -37.79296875 72.65625 C-37.45847214 71.91008423 -37.12397552 71.16391846 -36.77934265 70.3951416 C-32.5299561 60.97349738 -32.5299561 60.97349738 -30 51 C-29.67 51 -29.34 51 -29 51 C-28.84585015 61.67273643 -29.32430338 72.22937702 -30 82.875 C-30.09674367 84.44919486 -30.19309996 86.02341358 -30.2890625 87.59765625 C-30.52159446 91.39872624 -30.75930418 95.1994386 -31 99 C-28.03 99.99 -25.06 100.98 -22 102 C-36.81723611 109.40861805 -62.51643799 103.86882761 -77.41845703 98.93261719 C-96.33373045 92.09921975 -111.96543009 80.85075869 -120.6875 62.4375 C-124.84572295 51.54691607 -123.56835756 40.56669963 -119 30 C-115.92741917 24.98619105 -112.47636642 19.88036296 -108 16 C-107.34 16 -106.68 16 -106 16 C-106 15.34 -106 14.68 -106 14 C-92.34515022 2.07560354 -72.82193762 -4.80653075 -55 -7 C-53.94425781 -7.1340625 -52.88851562 -7.268125 -51.80078125 -7.40625 C-35.95991775 -8.93979894 -13.70281852 -9.13521235 0 0 Z " fill="#0805D3" transform="translate(134,37)"/>
<path d="M0 0 C11.2836134 3.48259673 19.1641473 12.6251714 24.87890625 22.61328125 C29.21006857 31.83397874 29.55803478 42.58669405 27.16015625 52.45703125 C19.67691631 71.68165102 3.88360719 81.80058287 -14.25 89.875 C-18.78241688 91.72219594 -22.14492733 92.5517128 -27 92 C-23.47830144 63.19565953 -13.85468427 33.11941705 -0.25 7.51953125 C1.14814458 5.17015739 1.14814458 5.17015739 1 3 C-0.65 6.3 -2.3 9.6 -4 13 C-5 10 -5 10 -4.00390625 7.51953125 C-3.52824219 6.62621094 -3.05257812 5.73289062 -2.5625 4.8125 C-2.08941406 3.91144531 -1.61632812 3.01039062 -1.12890625 2.08203125 C-0.75636719 1.39496094 -0.38382813 0.70789062 0 0 Z " fill="#0B08D5" transform="translate(149,45)"/>
<path d="M0 0 C6.76865012 2.47109449 11.26017699 5.57435052 16 11 C13 12 13 12 10.875 11.3125 C9 10 9 10 8.25 7.875 C8.1675 7.25625 8.085 6.6375 8 6 C6.68 6 5.36 6 4 6 C3.34 7.32 2.68 8.64 2 10 C2.515625 10.495 3.03125 10.99 3.5625 11.5 C5.28451644 14.49481119 5.14956098 16.47525141 4.58984375 19.83984375 C3.76315396 22.8673898 2.44939913 25.49796407 0.9375 28.23828125 C-0.14241411 30.14973149 -0.14241411 30.14973149 -1 33 C-1.66 33 -2.32 33 -3 33 C-2.9175 33.763125 -2.835 34.52625 -2.75 35.3125 C-2.97832537 38.68029916 -3.47331569 40.50021989 -4.6875 43.5625 C-8.12209422 52.40134821 -9.91780665 61.77022812 -12 71 C-12.66 71 -13.32 71 -14 71 C-13.98839844 71.83144531 -13.97679687 72.66289063 -13.96484375 73.51953125 C-13.95582031 74.60621094 -13.94679687 75.69289063 -13.9375 76.8125 C-13.92589844 77.89144531 -13.91429687 78.97039062 -13.90234375 80.08203125 C-14 83 -14 83 -15 86 C-14.01 86.33 -13.02 86.66 -12 87 C-12 87.66 -12 88.32 -12 89 C-17.36000789 91.25684543 -21.1977825 92.36263859 -27 92 C-23.47830144 63.19565953 -13.85468427 33.11941705 -0.25 7.51953125 C1.14814458 5.17015739 1.14814458 5.17015739 1 3 C-0.65 6.3 -2.3 9.6 -4 13 C-5 10 -5 10 -4.00390625 7.51953125 C-3.52824219 6.62621094 -3.05257812 5.73289062 -2.5625 4.8125 C-2.08941406 3.91144531 -1.61632812 3.01039062 -1.12890625 2.08203125 C-0.75636719 1.39496094 -0.38382813 0.70789062 0 0 Z " fill="#0B08B0" transform="translate(149,45)"/>
<path d="M0 0 C0.33 0 0.66 0 1 0 C1.15414985 10.67273643 0.67569662 21.22937702 0 31.875 C-0.09674367 33.44919486 -0.19309996 35.02341358 -0.2890625 36.59765625 C-0.52159446 40.39872624 -0.75930418 44.1994386 -1 48 C1.97 48.99 4.94 49.98 8 51 C2.1127378 53.9436311 -3.49819926 53.42477788 -10 53.4375 C-10.66807678 53.44056152 -11.33615356 53.44362305 -12.0244751 53.44677734 C-23.90044991 53.4610278 -34.7058769 51.72041702 -46 48 C-46 47.67 -46 47.34 -46 47 C-43.36 47 -40.72 47 -38 47 C-37.34 45.68 -36.68 44.36 -36 43 C-35.67 43.99 -35.34 44.98 -35 46 C-32.57828331 47.03499756 -32.57828331 47.03499756 -29.6875 47.6875 C-28.23923828 48.06455078 -28.23923828 48.06455078 -26.76171875 48.44921875 C-23.81555944 49.1303884 -23.81555944 49.1303884 -20 49 C-17.77324544 44.02088346 -15.54964541 39.04037437 -13.32885742 34.05859375 C-12.57417267 32.36680847 -11.81865273 30.67539548 -11.06225586 28.984375 C-9.97025092 26.54266059 -8.881335 24.09958811 -7.79296875 21.65625 C-7.45847214 20.91008423 -7.12397552 20.16391846 -6.77934265 19.3951416 C-2.5299561 9.97349738 -2.5299561 9.97349738 0 0 Z " fill="#2C2DC6" transform="translate(104,88)"/>
<path d="M0 0 C6.76865012 2.47109449 11.26017699 5.57435052 16 11 C13 12 13 12 10.875 11.3125 C9 10 9 10 8.25 7.875 C8.1675 7.25625 8.085 6.6375 8 6 C6.68 6 5.36 6 4 6 C-0.57283211 10.75893574 -2.76970826 17.91965156 -5 24 C-4.34 24 -3.68 24 -3 24 C-2.731875 23.113125 -2.46375 22.22625 -2.1875 21.3125 C-1.08289181 18.23122452 0.22849144 15.73778595 2 13 C3.41775031 17.25325092 1.43588139 19.69222188 -0.4375 23.5 C-8.75209147 41.29876881 -13.43470578 60.74272002 -17 80 C-17.66 80 -18.32 80 -19 80 C-18.52087184 71.75569133 -17.02214499 63.99955473 -15 56 C-15.66 56 -16.32 56 -17 56 C-17.10957031 56.84304687 -17.21914062 57.68609375 -17.33203125 58.5546875 C-17.49058594 59.65039062 -17.64914063 60.74609375 -17.8125 61.875 C-17.96332031 62.96554688 -18.11414063 64.05609375 -18.26953125 65.1796875 C-19 68 -19 68 -22 70 C-21.41384193 63.61161896 -19.92889616 57.89998455 -17.9375 51.8125 C-17.62876953 50.85923828 -17.32003906 49.90597656 -17.00195312 48.92382812 C-12.33316968 34.71163966 -7.27966329 20.74722356 -0.25 7.51953125 C1.14814458 5.17015739 1.14814458 5.17015739 1 3 C-0.65 6.3 -2.3 9.6 -4 13 C-5 10 -5 10 -4.00390625 7.51953125 C-3.52824219 6.62621094 -3.05257812 5.73289062 -2.5625 4.8125 C-2.08941406 3.91144531 -1.61632812 3.01039062 -1.12890625 2.08203125 C-0.75636719 1.39496094 -0.38382813 0.70789062 0 0 Z " fill="#1414AD" transform="translate(149,45)"/>
<path d="M0 0 C0.66 0.33 1.32 0.66 2 1 C-1.54125113 6.56482321 -1.54125113 6.56482321 -3.9765625 8.875 C-6.20606252 11.21640543 -7.31944723 13.30197761 -8.625 16.25 C-9.23214844 17.58804688 -9.23214844 17.58804688 -9.8515625 18.953125 C-12.34945945 25.58019854 -13.32673102 31.4791117 -13.25 38.5 C-13.25773437 39.20769531 -13.26546875 39.91539063 -13.2734375 40.64453125 C-13.25482535 45.73495475 -12.38896515 50.10261176 -11 55 C-10.79117187 55.763125 -10.58234375 56.52625 -10.3671875 57.3125 C-10.20476563 57.869375 -10.04234375 58.42625 -9.875 59 C-9.58625 59.99 -9.2975 60.98 -9 62 C-9.99 61.01 -10.98 60.02 -12 59 C-11.67 59.99 -11.34 60.98 -11 62 C-11.33 62.99 -11.66 63.98 -12 65 C-17.7759983 58.90311291 -21.29624599 51.44504812 -22 43 C-22.06316406 42.29746094 -22.12632813 41.59492187 -22.19140625 40.87109375 C-22.8586248 27.46215326 -17.1308696 16.93846206 -8.37890625 7.1953125 C-7 6 -7 6 -5 6 C-5 5.34 -5 4.68 -5 4 C-3.37373596 2.61767557 -1.7074998 1.28062485 0 0 Z " fill="#A5B1EC" transform="translate(33,47)"/>
<path d="M0 0 C0.33 0 0.66 0 1 0 C1 10.23 1 20.46 1 31 C-3.29 31 -7.58 31 -12 31 C-12 29.02 -12 27.04 -12 25 C-11.34 25 -10.68 25 -10 25 C-10.04125 23.824375 -10.0825 22.64875 -10.125 21.4375 C-10.11752919 17.23890561 -9.52077804 13.92200653 -8 10 C-7.01 9.67 -6.02 9.34 -5 9 C-2.54814064 6.25391752 -1.24412767 3.44527661 0 0 Z " fill="#0702D1" transform="translate(101,108)"/>
<path d="M0 0 C1 3 1 3 -0.3359375 5.94921875 C-1.01096985 7.19784042 -1.69109676 8.44371501 -2.375 9.6875 C-12.9044326 29.8286193 -19.96147187 52.31048686 -24.26171875 74.6015625 C-25.07304263 77.23729192 -26.01952399 78.16086778 -28 80 C-26.53804316 64.74741936 -21.96514201 50.38012207 -17 35.9375 C-16.58500244 34.72545898 -16.17000488 33.51341797 -15.74243164 32.26464844 C-13.19462297 24.98519508 -10.33216057 17.95588519 -7 11 C-6.34 11 -5.68 11 -5 11 C-4.731875 10.113125 -4.46375 9.22625 -4.1875 8.3125 C-3.08289181 5.23122452 -1.77150856 2.73778595 0 0 Z " fill="#8E97DA" transform="translate(150,47)"/>
<path d="M0 0 C1.41775031 4.25325092 -0.56411861 6.69222188 -2.4375 10.5 C-10.75209147 28.29876881 -15.43470578 47.74272002 -19 67 C-19.66 67 -20.32 67 -21 67 C-20.54401467 58.90851526 -19.09345965 51.42693061 -16.9375 43.625 C-16.47657959 41.9390271 -16.47657959 41.9390271 -16.00634766 40.21899414 C-13.93319513 32.83892553 -11.59038181 25.60600378 -8.875 18.4375 C-8.56296631 17.61266113 -8.25093262 16.78782227 -7.92944336 15.93798828 C-5.73002904 10.35437485 -3.02844302 5.17738666 0 0 Z " fill="#8F8FF9" transform="translate(151,58)"/>
<path d="M0 0 C6.76865012 2.47109449 11.26017699 5.57435052 16 11 C13 12 13 12 10.875 11.3125 C9 10 9 10 8.25 7.875 C8.1675 7.25625 8.085 6.6375 8 6 C6.68 6 5.36 6 4 6 C-0.39089717 10.67698963 -4 18.63386727 -4 25 C-4.99 25 -5.98 25 -7 25 C-7.103125 25.928125 -7.20625 26.85625 -7.3125 27.8125 C-8.03227796 31.14965236 -8.57142872 31.83186532 -11 34 C-8.62913447 24.17078667 -4.19593477 15.14933046 0 6 C-1.32 8.31 -2.64 10.62 -4 13 C-5 10 -5 10 -4.00390625 7.51953125 C-3.52824219 6.62621094 -3.05257812 5.73289062 -2.5625 4.8125 C-1.85287109 3.46091797 -1.85287109 3.46091797 -1.12890625 2.08203125 C-0.75636719 1.39496094 -0.38382813 0.70789062 0 0 Z " fill="#212495" transform="translate(149,45)"/>
<path d="M0 0 C0 0.33 0 0.66 0 1 C-0.82612793 1.02505615 -1.65225586 1.0501123 -2.50341797 1.07592773 C-5.61597873 1.17198367 -8.72842171 1.27115022 -11.84082031 1.37231445 C-13.8313065 1.43609984 -15.8219031 1.49640927 -17.8125 1.55664062 C-24.91281583 1.7897318 -31.94478208 2.15216712 -39 3 C-39 3.66 -39 4.32 -39 5 C-40.46373047 5.39832031 -40.46373047 5.39832031 -41.95703125 5.8046875 C-43.24226586 6.16117593 -44.52741784 6.51796239 -45.8125 6.875 C-47.07707031 7.22304688 -48.34164062 7.57109375 -49.64453125 7.9296875 C-53.08408713 8.85700295 -53.08408713 8.85700295 -56 11 C-58.32495277 11.38749213 -60.6599583 11.71758117 -63 12 C-64.66934283 12.31966139 -66.3373217 12.64731066 -68 13 C-66.4567518 9.91350361 -63.50447592 9.33177334 -60.4375 8.125 C-59.77508301 7.86178955 -59.11266602 7.5985791 -58.43017578 7.32739258 C-51.1251497 4.5209951 -43.63117435 2.6795474 -36 1 C-35.16339844 0.81308594 -34.32679687 0.62617188 -33.46484375 0.43359375 C-22.31457566 -1.52786387 -11.20123583 -0.95674156 0 0 Z " fill="#595FCF" transform="translate(110,30)"/>
<path d="M0 0 C0.33 0 0.66 0 1 0 C0.67 4.95 0.34 9.9 0 15 C0.33 13.68 0.66 12.36 1 11 C2.423125 11.0928125 2.423125 11.0928125 3.875 11.1875 C5.421875 11.0946875 5.421875 11.0946875 7 11 C7.66 10.01 8.32 9.02 9 8 C8.67 10.31 8.34 12.62 8 15 C8.99 15.33 9.98 15.66 11 16 C11 16.66 11 17.32 11 18 C5.63999211 20.25684543 1.8022175 21.36263859 -4 21 C-2.98208077 13.89622327 -1.90094901 6.92488567 0 0 Z " fill="#1D1BD5" transform="translate(126,116)"/>
<path d="M0 0 C0.66 0.33 1.32 0.66 2 1 C-1.54125113 6.56482321 -1.54125113 6.56482321 -3.9765625 8.875 C-9.2572554 14.42074698 -11.47410422 22.64795672 -13 30 C-13.33 29.34 -13.66 28.68 -14 28 C-14.66 28 -15.32 28 -16 28 C-16.33 29.32 -16.66 30.64 -17 32 C-16.2481203 24.60651629 -16.2481203 24.60651629 -14.875 21.25 C-13.74133947 19.07181453 -13.74133947 19.07181453 -14.68359375 17.15625 C-15 15 -15 15 -13.41796875 12.640625 C-12.31388672 11.45726562 -12.31388672 11.45726562 -11.1875 10.25 C-10.45917969 9.45078125 -9.73085938 8.6515625 -8.98046875 7.828125 C-7 6 -7 6 -5 6 C-5 5.34 -5 4.68 -5 4 C-3.37373596 2.61767557 -1.7074998 1.28062485 0 0 Z " fill="#868DD3" transform="translate(33,47)"/>
<path d="M0 0 C2.47487555 0.01842522 4.94937891 0.02050799 7.42431641 0.02026367 C9.00635089 0.02517421 10.58838285 0.0310005 12.17041016 0.0378418 C13.27357071 0.03951103 13.27357071 0.03951103 14.39901733 0.04121399 C17.76391393 0.0724092 20.8670836 0.15961122 24.08447266 1.20581055 C24.08447266 2.19581055 24.08447266 3.18581055 24.08447266 4.20581055 C16.74669158 4.33232401 16.74669158 4.33232401 13.46728516 3.70581055 C9.50168247 3.11967066 5.6205202 3.08088411 1.62353516 3.1081543 C0.43768326 3.11027672 0.43768326 3.11027672 -0.77212524 3.11244202 C-3.27829901 3.11800551 -5.78438093 3.13055111 -8.29052734 3.14331055 C-9.9975573 3.14833027 -11.70458866 3.15289235 -13.41162109 3.15698242 C-17.57962482 3.16796296 -21.74756055 3.18520216 -25.91552734 3.20581055 C-25.91552734 2.87581055 -25.91552734 2.54581055 -25.91552734 2.20581055 C-17.23483865 -0.02158726 -8.89740629 -0.06868862 0 0 Z " fill="#1F1FB8" transform="translate(96.91552734375,30.794189453125)"/>
<path d="M0 0 C2.49089361 0.89497926 4.54431226 1.79080196 6.70703125 3.3203125 C7.67246352 6.50055996 7.83043475 8.1118216 7.70703125 11.3203125 C7.71734375 12.3721875 7.72765625 13.4240625 7.73828125 14.5078125 C7.76601056 17.44711949 7.75111581 20.38134175 7.70703125 23.3203125 C7.37703125 23.3203125 7.04703125 23.3203125 6.70703125 23.3203125 C6.50787109 21.87398437 6.50787109 21.87398437 6.3046875 20.3984375 C6.12808594 19.13515625 5.95148438 17.871875 5.76953125 16.5703125 C5.59550781 15.31734375 5.42148438 14.064375 5.2421875 12.7734375 C4.73104174 8.97686958 4.73104174 8.97686958 3.70703125 5.3203125 C-0.8003857 2.13860642 -3.65641001 0.77040433 -9.29296875 1.3203125 C-9.62296875 2.9703125 -9.95296875 4.6203125 -10.29296875 6.3203125 C-11.28296875 6.6503125 -12.27296875 6.9803125 -13.29296875 7.3203125 C-13.47859375 8.38185547 -13.47859375 8.38185547 -13.66796875 9.46484375 C-14.3182204 12.43568099 -15.23543564 15.1579163 -16.29296875 18.0078125 C-16.64359375 18.96042969 -16.99421875 19.91304687 -17.35546875 20.89453125 C-18.29296875 23.3203125 -18.29296875 23.3203125 -19.29296875 25.3203125 C-19.95296875 24.6603125 -20.61296875 24.0003125 -21.29296875 23.3203125 C-20.95476947 18.91585676 -18.95588754 15.19660597 -16.98046875 11.3203125 C-16.68462891 10.71703125 -16.38878906 10.11375 -16.08398438 9.4921875 C-11.79220458 0.96424493 -9.38314037 -2.78137381 0 0 Z " fill="#98A5F4" transform="translate(78.29296875,68.6796875)"/>
<path d="M0 0 C4.30840713 1.07710178 7.63576723 2.03947516 11 5 C12.32 4.34 13.64 3.68 15 3 C15.33 3.66 15.66 4.32 16 5 C15.19555664 7.15478516 15.19555664 7.15478516 13.91015625 9.7890625 C13.45576172 10.73007813 13.00136719 11.67109375 12.53320312 12.640625 C12.04787109 13.62546875 11.56253906 14.6103125 11.0625 15.625 C10.58103516 16.61757812 10.09957031 17.61015625 9.60351562 18.6328125 C8.40935889 21.09206598 7.2079369 23.54749335 6 26 C4.60647202 21.26932202 5.42262438 16.73768428 6.12304688 11.93164062 C6.42626753 9.55498943 6.42626753 9.55498943 6 6 C4.19189455 3.84318375 2.35652907 2.61075333 0 1 C0 0.67 0 0.34 0 0 Z " fill="#0B0BBC" transform="translate(113,56)"/>
<path d="M0 0 C0.66 0 1.32 0 2 0 C2.97422473 1.94844945 3.94785897 3.89715284 4.91796875 5.84765625 C5.79765956 7.59751054 6.70700529 9.33243305 7.625 11.0625 C9.14352112 14.30661331 10.02607055 17.55878261 11 21 C11.66 21.99 12.32 22.98 13 24 C8.56456799 23.73909223 6.29060393 22.0107091 3.36328125 18.88671875 C1.00541901 15.62354551 -0.32860059 11.96050212 -1 8 C-0.67 7.01 -0.34 6.02 0 5 C0.99 6.65 1.98 8.3 3 10 C2.505 8.906875 2.01 7.81375 1.5 6.6875 C0 3 0 3 0 0 Z " fill="#1110BF" transform="translate(20,97)"/>
<path d="M0 0 C4.45673159 0.49871064 6.57687178 2.02004362 9.8125 5.0625 C10.60269531 5.79597656 11.39289063 6.52945312 12.20703125 7.28515625 C12.79871094 7.85105469 13.39039063 8.41695312 14 9 C13.32201586 12.58129571 11.82812067 15.31450739 10.0234375 18.46484375 C9.435625 19.51220703 8.8478125 20.55957031 8.2421875 21.63867188 C6.99716733 23.83829433 5.74454538 26.03363133 4.484375 28.22460938 C3.89914063 29.27326172 3.31390625 30.32191406 2.7109375 31.40234375 C1.89568604 32.83308228 1.89568604 32.83308228 1.06396484 34.29272461 C-0.14952989 37.38048117 0.02772412 38.87715767 1 42 C-0.65 41.34 -2.3 40.68 -4 40 C-2.81790971 37.58055287 -1.63042316 35.16410691 -0.4375 32.75 C-0.08123535 32.02651367 0.2750293 31.30302734 0.64208984 30.55761719 C3.43218813 24.96261248 6.5331354 19.69586921 9.9453125 14.453125 C11.2585886 12.09364695 11.2585886 12.09364695 10.4375 9.875 C8.78536234 7.72003784 7.08791222 6.32045383 4.875 4.75 C4.15054688 4.22921875 3.42609375 3.7084375 2.6796875 3.171875 C2.12539062 2.78515625 1.57109375 2.3984375 1 2 C0.34 3.32 -0.32 4.64 -1 6 C-0.67 4.02 -0.34 2.04 0 0 Z " fill="#7986BD" transform="translate(153,5)"/>
<path d="M0 0 C0.66 0.33 1.32 0.66 2 1 C2 15.66666667 2 30.33333333 2 45 C1.01 44.67 0.02 44.34 -1 44 C-2.3838477 35.41627337 -1.6797413 27.05319949 -1.0625 18.4375 C-0.96086044 16.9368981 -0.85994304 15.4362471 -0.75976562 13.93554688 C-0.51483514 10.28976083 -0.26013364 6.64473655 0 3 C-0.99 2.67 -1.98 2.34 -3 2 C-2.01 1.34 -1.02 0.68 0 0 Z " fill="#A6B7FC" transform="translate(69,90)"/>
<path d="M0 0 C0 0.66 0 1.32 0 2 C1.3921875 2.185625 1.3921875 2.185625 2.8125 2.375 C6 3 6 3 9 5 C10.1875 8.125 10.1875 8.125 11 11 C11.66 10.67 12.32 10.34 13 10 C13.66 10.66 14.32 11.32 15 12 C12.03 17.445 12.03 17.445 9 23 C8.67 23 8.34 23 8 23 C7.67 17.39 7.34 11.78 7 6 C5.35 5.67 3.7 5.34 2 5 C1.01 4.484375 0.02 3.96875 -1 3.4375 C-4.02360695 1.98868834 -5.71109809 1.70980277 -9 2 C-9 1.34 -9 0.68 -9 0 C-5.67465243 -1.10844919 -3.37817425 -0.84454356 0 0 Z " fill="#1819B8" transform="translate(78,66)"/>
<path d="M0 0 C1.485 0.99 1.485 0.99 3 2 C3.36328125 5.1328125 3.36328125 5.1328125 3.3125 9.125 C3.30412109 9.82625 3.29574219 10.5275 3.28710938 11.25 C3.11691869 18.90177332 2.12615618 26.43866565 1 34 C0.34 34 -0.32 34 -1 34 C-1.13947228 22.62526092 -0.73570866 11.35093354 0 0 Z " fill="#95A2F8" transform="translate(104,102)"/>
<path d="M0 0 C1 3 1 3 -0.4765625 6.30078125 C-1.18531614 7.64195344 -1.90196968 8.9789702 -2.625 10.3125 C-6.06556259 16.8667041 -8.72244614 23.36297108 -10.9921875 30.40234375 C-12 33 -12 33 -14 34 C-14.72159424 35.64363134 -15.39351421 37.31050386 -16 39 C-17.1881115 35.4356655 -16.74894368 34.66037738 -15.41796875 31.25390625 C-14.88526367 29.87428711 -14.88526367 29.87428711 -14.34179688 28.46679688 C-13.96087891 27.50837891 -13.57996094 26.54996094 -13.1875 25.5625 C-12.81818359 24.60794922 -12.44886719 23.65339844 -12.06835938 22.66992188 C-10.51840691 18.69347292 -8.96124256 14.79406718 -7 11 C-6.34 11 -5.68 11 -5 11 C-4.731875 10.113125 -4.46375 9.22625 -4.1875 8.3125 C-3.08289181 5.23122452 -1.77150856 2.73778595 0 0 Z " fill="#7C84CC" transform="translate(150,47)"/>
<path d="M0 0 C0.66 0 1.32 0 2 0 C1.48468023 4.98142448 0.7450523 9.27809378 -1 14 C-2.41736409 17.85838002 -3.24243973 20.87852466 -3 25 C-2.01 25 -1.02 25 0 25 C0.66 24.34 1.32 23.68 2 23 C1.67 24.32 1.34 25.64 1 27 C-0.98 26.67 -2.96 26.34 -5 26 C-5.33 28.64 -5.66 31.28 -6 34 C-6.33 34 -6.66 34 -7 34 C-5.63106796 14.63106796 -5.63106796 14.63106796 -3 12 C-2.35822405 9.90407756 -2.35822405 9.90407756 -1.9375 7.5625 C-1.41445483 4.93862879 -0.84906993 2.54720979 0 0 Z " fill="#0A08B9" transform="translate(132,101)"/>
<path d="M0 0 C0.66 0.66 1.32 1.32 2 2 C1.08404218 10.24362042 -2.07390384 16.38580364 -8 22 C-8.99 21.67 -9.98 21.34 -11 21 C-10.67 19.35 -10.34 17.7 -10 16 C-9.34 16.33 -8.68 16.66 -8 17 C-5.36 11.39 -2.72 5.78 0 0 Z " fill="#A1AFFA" transform="translate(127,63)"/>
<path d="M0 0 C0.66 0 1.32 0 2 0 C0.33913088 5.56664924 -2.11071736 10.65786353 -4.625 15.875 C-5.04523438 16.75414063 -5.46546875 17.63328125 -5.8984375 18.5390625 C-6.9291692 20.69422878 -7.96309426 22.84779922 -9 25 C-11.875 25.125 -11.875 25.125 -15 25 C-15.66 24.34 -16.32 23.68 -17 23 C-15.02 23 -13.04 23 -11 23 C-7.37 15.41 -3.74 7.82 0 0 Z " fill="#8393C8" transform="translate(149,13)"/>
<path d="M0 0 C0.66 0 1.32 0 2 0 C2.53625 0.66 3.0725 1.32 3.625 2 C7.1097317 4.9345109 9.53552728 4.29763151 14 4 C14.09928082 11.75493514 14.06059488 19.31068715 13 27 C12.67 27 12.34 27 12 27 C11.88618045 20.23405981 12.11978631 13.71162938 13 7 C11.783125 7.103125 10.56625 7.20625 9.3125 7.3125 C5.62322503 7.33215866 5.09905077 7.07841519 2 4.625 C0 2 0 2 0 0 Z " fill="#1315AE" transform="translate(55,90)"/>
<path d="M0 0 C0.99 1.32 1.98 2.64 3 4 C2.09755571 5.79887229 1.17748214 7.58890815 0.25 9.375 C-0.51570312 10.87160156 -0.51570312 10.87160156 -1.296875 12.3984375 C-3.04307055 15.06579125 -4.05303231 15.93652905 -7 17 C-6.37954537 12.76677156 -4.89476441 9.47709705 -2.9375 5.6875 C-2.38964844 4.61886719 -1.84179688 3.55023438 -1.27734375 2.44921875 C-0.64505859 1.23685547 -0.64505859 1.23685547 0 0 Z " fill="#A1AEFB" transform="translate(138,40)"/>
<path d="M0 0 C0.66 0 1.32 0 2 0 C1.34 1.65 0.68 3.3 0 5 C-0.66 5 -1.32 5 -2 5 C-2.185625 6.06154297 -2.185625 6.06154297 -2.375 7.14453125 C-3.02525165 10.11536849 -3.94246689 12.8376038 -5 15.6875 C-5.350625 16.64011719 -5.70125 17.59273437 -6.0625 18.57421875 C-7 21 -7 21 -8 23 C-8.66 22.34 -9.32 21.68 -10 21 C-9.67032364 16.52122604 -7.57992185 12.74462365 -5.5625 8.8125 C-5.24990234 8.18408203 -4.93730469 7.55566406 -4.61523438 6.90820312 C-3.275377 4.25964785 -2.1121027 2.1121027 0 0 Z " fill="#A2B0FC" transform="translate(67,71)"/>
<path d="M0 0 C0.66 0 1.32 0 2 0 C1.57476184 1.60746056 1.13429874 3.21089836 0.6875 4.8125 C0.44386719 5.70582031 0.20023438 6.59914063 -0.05078125 7.51953125 C-1.04080162 10.1066215 -1.99451568 11.16163937 -4 13 C-5.04622875 14.97620986 -6.05439935 16.9737129 -7 19 C-7.99 18.67 -8.98 18.34 -10 18 C-6.7 12.06 -3.4 6.12 0 0 Z " fill="#A6B4FD" transform="translate(101,62)"/>
<path d="M0 0 C0.45375 0.61875 0.9075 1.2375 1.375 1.875 C2.97108919 4.05919833 2.97108919 4.05919833 5 6 C7.1875 8.4375 7.1875 8.4375 9 11 C8.67 11.99 8.34 12.98 8 14 C9.87197454 16.69433317 9.87197454 16.69433317 12 19 C7.46113315 17.15083202 4.02765099 14.32037068 2.015625 9.77734375 C0.8458003 6.3837485 0 3.61002173 0 0 Z " fill="#5456CD" transform="translate(19,102)"/>
<path d="M0 0 C0.66 0.33 1.32 0.66 2 1 C-0.64474898 5.21200763 -3.36982577 8.55133449 -7 12 C-7.763125 12.763125 -8.52625 13.52625 -9.3125 14.3125 C-10.1478125 15.1478125 -10.1478125 15.1478125 -11 16 C-11.33663062 12.29706315 -11.47736015 10.60465619 -9.125 7.625 C-7 6 -7 6 -5 6 C-5 5.34 -5 4.68 -5 4 C-3.37373596 2.61767557 -1.7074998 1.28062485 0 0 Z " fill="#4A54C3" transform="translate(33,47)"/>
<path d="M0 0 C0.33 0 0.66 0 1 0 C1.55353075 11.52164009 1.55353075 11.52164009 -2 17 C-2.99 16.67 -3.98 16.34 -5 16 C-5.6875 12.75 -5.6875 12.75 -6 9 C-5.01 7.68 -4.02 6.36 -3 5 C-3.33 8.3 -3.66 11.6 -4 15 C-3.34 15 -2.68 15 -2 15 C-1.93941406 14.25234375 -1.87882813 13.5046875 -1.81640625 12.734375 C-1.73261719 11.74953125 -1.64882812 10.7646875 -1.5625 9.75 C-1.48128906 8.77546875 -1.40007812 7.8009375 -1.31640625 6.796875 C-1.04925416 4.43538247 -0.64628032 2.28098935 0 0 Z " fill="#1A17A5" transform="translate(134,110)"/>
<path d="M0 0 C0.66 0.33 1.32 0.66 2 1 C2.3690205 17.70842825 2.3690205 17.70842825 0 26 C-0.33 26 -0.66 26 -1 26 C-0.67 18.41 -0.34 10.82 0 3 C-0.99 2.67 -1.98 2.34 -3 2 C-2.01 1.34 -1.02 0.68 0 0 Z " fill="#9DADF8" transform="translate(69,90)"/>
<path d="M0 0 C2.14714411 7.03875814 0.16537441 15.14298104 -2 22 C-3.5703125 23.72265625 -3.5703125 23.72265625 -5 25 C-4.38580826 16.40131562 -2.19092979 8.30515248 0 0 Z " fill="#8D98D1" transform="translate(127,102)"/>
<path d="M0 0 C1.32 0.33 2.64 0.66 4 1 C3.125 5.75 3.125 5.75 2 8 C2.33 8.99 2.66 9.98 3 11 C2.0625 13.6875 2.0625 13.6875 1 16 C0.43344032 13.81469839 -0.05723894 11.66474336 -0.4375 9.4375 C-0.90385426 6.761368 -0.90385426 6.761368 -3 4 C-2.01 2.68 -1.02 1.36 0 0 Z " fill="#0703CB" transform="translate(153,50)"/>
<path d="M0 0 C4.45673159 0.49871064 6.57687178 2.02004362 9.8125 5.0625 C10.60269531 5.79597656 11.39289063 6.52945312 12.20703125 7.28515625 C13.09455078 8.13400391 13.09455078 8.13400391 14 9 C13.67 10.32 13.34 11.64 13 13 C12.505 12.29875 12.01 11.5975 11.5 10.875 C8.38924563 7.29763247 4.85619756 4.72367352 1 2 C0.34 3.32 -0.32 4.64 -1 6 C-0.67 4.02 -0.34 2.04 0 0 Z " fill="#8595C4" transform="translate(153,5)"/>
<path d="M0 0 C0.33 0 0.66 0 1 0 C0.67 6.93 0.34 13.86 0 21 C-1.32 21 -2.64 21 -4 21 C-2.98208077 13.89622327 -1.90094901 6.92488567 0 0 Z " fill="#201F9E" transform="translate(126,116)"/>
<path d="M0 0 C4.41510774 0.48713098 6.30446645 1.85053197 9.3125 5.0625 C10.00988281 5.79597656 10.70726562 6.52945313 11.42578125 7.28515625 C11.94527344 7.85105469 12.46476563 8.41695312 13 9 C10 10 10 10 7.875 9.3125 C6 8 6 8 5.25 5.875 C5.12625 4.946875 5.12625 4.946875 5 4 C3.35 4 1.7 4 0 4 C0 2.68 0 1.36 0 0 Z " fill="#3F43C8" transform="translate(152,47)"/>
<path d="M0 0 C4.875 4.625 4.875 4.625 6 8 C0.76119922 7.44854729 -3.97350697 6.57077907 -9 5 C-9 4.67 -9 4.34 -9 4 C-6.36 4 -3.72 4 -1 4 C-0.67 2.68 -0.34 1.36 0 0 Z " fill="#3336C7" transform="translate(67,131)"/>
<path d="M0 0 C5.56890517 0.47986031 10.67067568 1.29915181 16 3 C14.25 8.75 14.25 8.75 12 11 C12 9.02 12 7.04 12 5 C11.30132812 4.80664062 10.60265625 4.61328125 9.8828125 4.4140625 C8.51769531 4.02347656 8.51769531 4.02347656 7.125 3.625 C5.76761719 3.24214844 5.76761719 3.24214844 4.3828125 2.8515625 C2 2 2 2 0 0 Z " fill="#1313B6" transform="translate(123,35)"/>
<path d="M0 0 C0.33 0 0.66 0 1 0 C1 4.62 1 9.24 1 14 C-0.32 14 -1.64 14 -3 14 C-3 14.99 -3 15.98 -3 17 C-3.66 17 -4.32 17 -5 17 C-4.80664062 16.443125 -4.61328125 15.88625 -4.4140625 15.3125 C-2.68625575 10.24882873 -1.2306933 5.20677935 0 0 Z " fill="#1F2096" transform="translate(104,88)"/>
<path d="M0 0 C0.99 0.33 1.98 0.66 3 1 C3 4.63 3 8.26 3 12 C3.66 12 4.32 12 5 12 C3.83269511 15.95087809 2.55162546 18.78425284 0 22 C0.03552979 21.40461426 0.07105957 20.80922852 0.10766602 20.19580078 C0.26498794 17.50583226 0.41384562 14.81546083 0.5625 12.125 C0.61857422 11.18785156 0.67464844 10.25070313 0.73242188 9.28515625 C0.78076172 8.38925781 0.82910156 7.49335937 0.87890625 6.5703125 C0.9260376 5.74289551 0.97316895 4.91547852 1.02172852 4.06298828 C1.14984957 1.93489187 1.14984957 1.93489187 0 0 Z " fill="#22279F" transform="translate(118,60)"/>
<path d="M0 0 C1.08174162 3.36541838 0.92538169 4.29847322 0 8 C-4.29 7.67 -8.58 7.34 -13 7 C-13.33 6.01 -13.66 5.02 -14 4 C-10.04 4.33 -6.08 4.66 -2 5 C-1.34 3.35 -0.68 1.7 0 0 Z " fill="#232A98" transform="translate(86,132)"/>
<path d="M0 0 C0.99 1.485 0.99 1.485 2 3 C2.66 2.67 3.32 2.34 4 2 C4.28875 3.175625 4.5775 4.35125 4.875 5.5625 C5.83313721 9.4018927 6.89205511 13.2013318 8 17 C5.49962266 14.82575883 4.56371414 13.26954202 4 10 C3.34 10 2.68 10 2 10 C0.39644899 6.49223216 -0.22036864 3.85645121 0 0 Z " fill="#8D94E0" transform="translate(16,92)"/>
<path d="M0 0 C0.99 0.66 1.98 1.32 3 2 C2 4 2 4 0.625 5.75 C-1.26272544 8.36377368 -2.61337091 11.09468191 -4 14 C-4.66 14 -5.32 14 -6 14 C-3.18918919 3.18918919 -3.18918919 3.18918919 0 0 Z " fill="#1310BA" transform="translate(150,55)"/>
<path d="M0 0 C1.13732426 3.40401948 0.83989957 5.77456664 0.0625 9.25 C-0.13214844 10.14203125 -0.32679687 11.0340625 -0.52734375 11.953125 C-0.68332031 12.62859375 -0.83929688 13.3040625 -1 14 C-1.66 14 -2.32 14 -3 14 C-3.33 14.99 -3.66 15.98 -4 17 C-4.33 17 -4.66 17 -5 17 C-5.27771418 12.32051602 -4.54837397 9.32416664 -2.5 5.125 C-2.0359375 4.15820312 -1.571875 3.19140625 -1.09375 2.1953125 C-0.7328125 1.47085938 -0.371875 0.74640625 0 0 Z " fill="#1214A1" transform="translate(92,119)"/>
<path d="M0 0 C0.33 0 0.66 0 1 0 C1.08121924 1.60332791 1.13929134 3.20784026 1.1875 4.8125 C1.22230469 5.70582031 1.25710937 6.59914063 1.29296875 7.51953125 C0.94492139 10.46633225 0.19547287 11.11816611 -2 13 C-2.71447643 15.10332891 -2.71447643 15.10332891 -3 17 C-3.66 17 -4.32 17 -5 17 C-3.83348574 11.07136283 -2.24480642 5.61201606 0 0 Z " fill="#191AA4" transform="translate(145,74)"/>
<path d="M0 0 C0.33 0 0.66 0 1 0 C-0.11814284 14.0944847 -0.11814284 14.0944847 -2 19 C-2.99 19.66 -3.98 20.32 -5 21 C-4.42351925 13.64987044 -2.28953836 6.98575424 0 0 Z " fill="#1C1D96" transform="translate(132,94)"/>
<path d="M0 0 C4.50802601 1.25805377 7.4912812 2.90407165 11 6 C5.24734982 5.08480565 5.24734982 5.08480565 2.8125 4.25 C2.214375 4.1675 1.61625 4.085 1 4 C-0.77190909 5.35444301 -0.77190909 5.35444301 -2 7 C-2.66 6.67 -3.32 6.34 -4 6 C-2.68 4.02 -1.36 2.04 0 0 Z " fill="#A1AEFB" transform="translate(106,54)"/>
<path d="M0 0 C0.66 0.33 1.32 0.66 2 1 C2.3690205 11.55808656 2.3690205 11.55808656 0 16 C-0.33 16 -0.66 16 -1 16 C-1.11138159 10.54230189 -0.91657981 5.38490641 0 0 Z " fill="#ADBCFC" transform="translate(106,89)"/>
<path d="M0 0 C0.33 0 0.66 0 1 0 C1 6.27 1 12.54 1 19 C-1.48994147 15.2650878 -2.15468579 13.54835564 -2.1875 9.125 C-2.20167969 8.26132813 -2.21585938 7.39765625 -2.23046875 6.5078125 C-1.98859252 3.8758712 -1.32983541 2.26019456 0 0 Z " fill="#7789BC" transform="translate(13,76)"/>
<path d="M0 0 C0.66 0.99 1.32 1.98 2 3 C2.99 2.01 3.98 1.02 5 0 C3.87548273 2.9719385 2.77706209 5.33440687 1 8 C-0.32 7.67 -1.64 7.34 -3 7 C-2.25 2.25 -2.25 2.25 0 0 Z " fill="#7E85D9" transform="translate(21,59)"/>
<path d="M0 0 C0.66 0 1.32 0 2 0 C3.39195915 4.17587745 1.82323219 6.13474776 0 10 C-1.32 8.68 -2.64 7.36 -4 6 C-3.34 5.01 -2.68 4.02 -2 3 C-1.34 3 -0.68 3 0 3 C0 2.01 0 1.02 0 0 Z " fill="#9FB1E5" transform="translate(101,91)"/>
<path d="M0 0 C0.33 0 0.66 0 1 0 C1.38281159 5.23175837 0.21854707 8.37802694 -2 13 C-2.99 13 -3.98 13 -5 13 C-3.58192622 8.52761347 -1.88695626 4.28853694 0 0 Z " fill="#1C1FA0" transform="translate(98,105)"/>
<path d="M0 0 C0.33 1.32 0.66 2.64 1 4 C5.29 4 9.58 4 14 4 C14.33 3.34 14.66 2.68 15 2 C15 2.99 15 3.98 15 5 C9.39 5 3.78 5 -2 5 C-2 3.68 -2 2.36 -2 1 C-1.34 0.67 -0.68 0.34 0 0 Z " fill="#0A07C0" transform="translate(88,135)"/>
<path d="M0 0 C0.33 0 0.66 0 1 0 C0.88487847 1.72985242 0.75744323 3.45888751 0.625 5.1875 C0.55539063 6.15042969 0.48578125 7.11335938 0.4140625 8.10546875 C-0.00215853 11.01508938 -0.79874096 13.32890774 -2 16 C-2.66 16 -3.32 16 -4 16 C-2.68 10.72 -1.36 5.44 0 0 Z " fill="#1A1A9D" transform="translate(139,92)"/>
<path d="M0 0 C1.12377697 3.30435084 0.89554742 5.0506862 -0.4375 8.25 C-0.72496094 8.95640625 -1.01242188 9.6628125 -1.30859375 10.390625 C-1.53675781 10.92171875 -1.76492188 11.4528125 -2 12 C-2.66 12 -3.32 12 -4 12 C-4.33 12.99 -4.66 13.98 -5 15 C-4.31779879 9.40595005 -2.50643494 5.01286988 0 0 Z " fill="#9CABD6" transform="translate(17,64)"/>
<path d="M0 0 C0.66 0.33 1.32 0.66 2 1 C-0.31 5.62 -2.62 10.24 -5 15 C-5.33 15 -5.66 15 -6 15 C-6 13.35 -6 11.7 -6 10 C-5.34 10 -4.68 10 -4 10 C-3.87625 9.443125 -3.7525 8.88625 -3.625 8.3125 C-1.88888889 1.88888889 -1.88888889 1.88888889 0 0 Z " fill="#1718C1" transform="translate(63,74)"/>
<path d="M0 0 C2.631724 2.45627573 4.81527263 4.55352037 6 8 C5.625 10.25 5.625 10.25 5 12 C4.896875 11.360625 4.79375 10.72125 4.6875 10.0625 C4.460625 9.381875 4.23375 8.70125 4 8 C3.01 7.67 2.02 7.34 1 7 C0.67 4.69 0.34 2.38 0 0 Z " fill="#696CE5" transform="translate(169,62)"/>
<path d="M0 0 C0.99 0.66 1.98 1.32 3 2 C1.68 4.64 0.36 7.28 -1 10 C-1.33 10 -1.66 10 -2 10 C-2 7.03 -2 4.06 -2 1 C-1.34 0.67 -0.68 0.34 0 0 Z " fill="#1612C7" transform="translate(90,76)"/>
<path d="M0 0 C2.64 0.33 5.28 0.66 8 1 C8 2.32 8 3.64 8 5 C5.69 4.34 3.38 3.68 1 3 C0.34 3.66 -0.32 4.32 -1 5 C-0.67 3.35 -0.34 1.7 0 0 Z " fill="#1917C3" transform="translate(105,52)"/>
<path d="M0 0 C0.66 0.66 1.32 1.32 2 2 C1.69670231 5.84177074 0.47524576 8.09427672 -2 11 C-2.28571429 3.57142857 -2.28571429 3.57142857 0 0 Z " fill="#A2B0FD" transform="translate(127,63)"/>
<path d="M0 0 C0.66 0.33 1.32 0.66 2 1 C-0.80627778 5.74908547 -3.25091453 8.19372222 -8 11 C-6.25 7.125 -6.25 7.125 -4 6 C-2.96986723 4.35178756 -1.96885372 2.68496298 -1 1 C-0.67 0.67 -0.34 0.34 0 0 Z " fill="#0A0AB7" transform="translate(35,47)"/>
<path d="M0 0 C0.33 0 0.66 0 1 0 C1 1.98 1 3.96 1 6 C1.66 6 2.32 6 3 6 C2.67 8.31 2.34 10.62 2 13 C1.67 12.34 1.34 11.68 1 11 C0.34 11 -0.32 11 -1 11 C-0.67 7.37 -0.34 3.74 0 0 Z " fill="#1917B2" transform="translate(133,90)"/>
<path d="M0 0 C1.32 0.66 2.64 1.32 4 2 C2.68 4.31 1.36 6.62 0 9 C-0.98150241 6.05549278 -1.1613058 4.06481021 -1 1 C-0.67 0.67 -0.34 0.34 0 0 Z " fill="#1513C9" transform="translate(99,58)"/>
<path d="M0 0 C0.99 1.485 0.99 1.485 2 3 C5.55672179 4.2188121 5.55672179 4.2188121 9 5 C8.67 5.99 8.34 6.98 8 8 C5.36 7.01 2.72 6.02 0 5 C0 3.35 0 1.7 0 0 Z " fill="#A5B8F1" transform="translate(105,132)"/>
<path d="M0 0 C1.03115279 3.26913624 0.9638984 5.86041348 0.5625 9.25 C0.46066406 10.14203125 0.35882813 11.0340625 0.25390625 11.953125 C0.12822266 12.96632813 0.12822266 12.96632813 0 14 C-2 12 -2 12 -2.01171875 9.94140625 C-1.90472656 9.15636719 -1.79773438 8.37132813 -1.6875 7.5625 C-1.58824219 6.78003906 -1.48898438 5.99757813 -1.38671875 5.19140625 C-1 3 -1 3 0 0 Z " fill="#8691CC" transform="translate(127,102)"/>
<path d="M0 0 C-4.75 3 -4.75 3 -7 3 C-7 3.66 -7 4.32 -7 5 C-8.32 4.67 -9.64 4.34 -11 4 C-10.34 4 -9.68 4 -9 4 C-8.67 3.01 -8.34 2.02 -8 1 C-4.68510482 -0.74468167 -3.63361056 -1.21120352 0 0 Z " fill="#0709B2" transform="translate(50,42)"/>
<path d="M0 0 C0.66 0 1.32 0 2 0 C1.814375 1.11375 1.62875 2.2275 1.4375 3.375 C0.68319343 6.82568861 0.68319343 6.82568861 2 9 C-0.475 8.01 -0.475 8.01 -3 7 C-2.01 4.69 -1.02 2.38 0 0 Z " fill="#8193D0" transform="translate(152,38)"/>
<path d="M0 0 C0.66 0.33 1.32 0.66 2 1 C1.62403791 3.78211944 1.32681541 5.5879284 -0.4375 7.8125 C-2 9 -2 9 -4 9 C-2.80100302 5.9168649 -1.52299523 2.93720508 0 0 Z " fill="#AAB6FB" transform="translate(90,82)"/>
<path d="M0 0 C5.75 2.625 5.75 2.625 8 6 C5.125 5.8125 5.125 5.8125 2 5 C0.625 2.4375 0.625 2.4375 0 0 Z " fill="#2326C8" transform="translate(157,51)"/>
<path d="M0 0 C-2.39509338 2.89932357 -4.31245243 3.50168276 -8 4 C-8 3.01 -8 2.02 -8 1 C-5.07175348 0.02391783 -3.04386724 -0.08226668 0 0 Z " fill="#4040DC" transform="translate(147,128)"/>
<path d="M0 0 C3 1 3 1 4.25 2.875 C5 5 5 5 4 8 C0 3.375 0 3.375 0 0 Z " fill="#8E99DB" transform="translate(17,104)"/>
<path d="M0 0 C1.65 0.33 3.3 0.66 5 1 C3.515 3.475 3.515 3.475 2 6 C1.01 5.67 0.02 5.34 -1 5 C-0.67 3.35 -0.34 1.7 0 0 Z " fill="#8F9BDE" transform="translate(117,79)"/>
<path d="M0 0 C0.99 0 1.98 0 3 0 C2.67 1.65 2.34 3.3 2 5 C2.99 5.33 3.98 5.66 5 6 C3.35 6 1.7 6 0 6 C0 4.02 0 2.04 0 0 Z " fill="#899DD6" transform="translate(120,132)"/>
<path d="M0 0 C0.33 0 0.66 0 1 0 C1 3.63 1 7.26 1 11 C0.34 11 -0.32 11 -1 11 C-2.23076923 4.6 -2.23076923 4.6 -1.0625 1.5625 C-0.711875 1.046875 -0.36125 0.53125 0 0 Z " fill="#1E1CCB" transform="translate(130,115)"/>
<path d="M0 0 C0.66 0.66 1.32 1.32 2 2 C1.625 5.625 1.625 5.625 1 9 C0.34 9 -0.32 9 -1 9 C-0.67 6.03 -0.34 3.06 0 0 Z " fill="#0A0AAB" transform="translate(138,79)"/>
<path d="M0 0 C0.99 0 1.98 0 3 0 C1.25 5.75 1.25 5.75 -1 8 C-1.125 2.25 -1.125 2.25 0 0 Z " fill="#211FC2" transform="translate(136,38)"/>
</svg>
